<?xml version="1.0" standalone="no"?><!DOCTYPE svg PUBLIC "-//W3C//DTD SVG 1.1//EN" "http://www.w3.org/Graphics/SVG/1.1/DTD/svg11.dtd"><svg t="1556091448599" class="icon" style="" viewBox="0 0 1024 1024" version="1.1" xmlns="http://www.w3.org/2000/svg" p-id="1462" xmlns:xlink="http://www.w3.org/1999/xlink" width="200" height="200"><defs><style type="text/css"></style></defs><path d="M291.84 532.48c-96.768 0-179.2-69.12-196.096-164.352L50.688 110.592c-3.584-18.944 1.536-38.4 14.336-53.76s31.744-24.064 51.712-24.064h70.656c14.336 0 25.6 11.264 25.6 25.6s-11.264 25.6-25.6 25.6H116.224c-4.608 0-9.216 2.048-12.288 5.632-1.536 2.048-4.096 6.144-3.072 11.776l45.056 257.536C158.72 430.08 220.16 481.28 291.84 481.28c72.192 0 133.632-51.2 145.92-122.368l45.568-258.048c0.512-4.096-0.512-8.704-3.584-12.288-1.536-2.048-5.632-5.632-11.776-5.632H406.016c-14.336 0-25.6-11.264-25.6-25.6s11.264-25.6 25.6-25.6h61.952c19.456 0 37.888 8.704 50.688 23.552 12.8 14.848 17.92 34.816 14.848 53.76l-45.568 258.048C471.552 463.36 389.12 532.48 291.84 532.48z" p-id="1463"></path><path d="M291.84 507.392m-61.44 0a61.44 61.44 0 1 0 122.88 0 61.44 61.44 0 1 0-122.88 0Z" p-id="1464"></path><path d="M860.16 1011.2c-61.44 0-111.104-49.664-111.104-111.104s49.664-111.104 111.104-111.104 111.104 49.664 111.104 111.104-49.664 111.104-111.104 111.104z m0-171.008c-33.28 0-59.904 26.624-59.904 59.904s26.624 59.904 59.904 59.904 59.904-26.624 59.904-59.904-26.624-59.904-59.904-59.904zM434.176 1014.784c-92.16 0-167.424-75.264-167.424-167.424V507.392c0-14.336 11.264-25.6 25.6-25.6s25.6 11.264 25.6 25.6v339.968c0 64 52.224 116.224 116.224 116.224s116.224-52.224 116.224-116.224v-271.872c0-14.336 11.264-25.6 25.6-25.6s25.6 11.264 25.6 25.6v271.872c0 92.16-75.264 167.424-167.424 167.424z" p-id="1465"></path><path d="M576 828.928c-14.336 0-25.6-11.264-25.6-25.6v-209.92c0-92.16 75.264-167.424 167.424-167.424s167.424 75.264 167.424 167.424v200.704c0 14.336-11.264 25.6-25.6 25.6s-25.6-11.264-25.6-25.6v-200.704c0-64-52.224-116.224-116.224-116.224s-116.224 52.224-116.224 116.224v209.92c0 14.336-11.264 25.6-25.6 25.6z" p-id="1466"></path><path d="M186.368 58.368m-49.664 0a49.664 49.664 0 1 0 99.328 0 49.664 49.664 0 1 0-99.328 0Z" p-id="1467"></path><path d="M402.944 58.368m-49.664 0a49.664 49.664 0 1 0 99.328 0 49.664 49.664 0 1 0-99.328 0Z" p-id="1468"></path></svg>