<?xml version="1.0" standalone="no"?><!DOCTYPE svg PUBLIC "-//W3C//DTD SVG 1.1//EN" "http://www.w3.org/Graphics/SVG/1.1/DTD/svg11.dtd"><svg t="1556092406856" class="icon" style="" viewBox="0 0 1324 1024" version="1.1" xmlns="http://www.w3.org/2000/svg" p-id="3566" xmlns:xlink="http://www.w3.org/1999/xlink" width="258.59375" height="200"><defs><style type="text/css"></style></defs><path d="M1303.054587 679.489911a43.152188 43.152188 0 0 0-60.837511 14.855671 326.824766 326.824766 0 0 1-79.230246 84.88955c-5.659303-125.212086-89.84144-240.520391-121.675021-299.235663a244.764868 244.764868 0 0 1 14.148258-195.953377S1061.11937 394.402507 1131.860662 392.987681c85.596963 0 108.941589-106.111937 99.745221-188.879248a1034.23768 1034.23768 0 0 1 0-178.268054 282.965165 282.965165 0 0 0-263.157604 14.148258c-149.264125 78.522833-203.027506 288.624469-203.027506 288.624469h-282.965166a335.313721 335.313721 0 0 0-234.153674 70.741291l34.663232 37.492885c29.003929 31.126168 26.174278 45.981839-24.052039 113.893479a614.034409 614.034409 0 0 0-78.522833 262.450191 404.640187 404.640187 0 0 1-101.160047-90.548853 43.152188 43.152188 0 0 0-62.252336-7.074129 48.104078 48.104078 0 0 0-7.074129 63.667162c114.600892 147.849299 366.439889 243.350042 640.9161 243.350042 299.943075 0 565.930331-112.478653 667.090377-282.965165a47.396665 47.396665 0 0 0-14.855671-60.130098z m-157.045667-565.930331a15.563084 15.563084 0 1 1-15.563084 15.563084 15.563084 15.563084 0 0 1 15.563084-17.685323z m-495.189039 819.891567a1032.115441 1032.115441 0 0 1-302.065315-44.567013A330.361831 330.361831 0 0 1 643.038338 637.752549h25.466865c278.720688 0 332.484069 171.193925 342.387851 228.494371a999.574447 999.574447 0 0 1-360.073173 65.081988z" fill="#1afa29" p-id="3567"></path></svg>