<?xml version="1.0" standalone="no"?><!DOCTYPE svg PUBLIC "-//W3C//DTD SVG 1.1//EN" "http://www.w3.org/Graphics/SVG/1.1/DTD/svg11.dtd"><svg t="1555057445235" class="icon" style="" viewBox="0 0 1024 1024" version="1.1" xmlns="http://www.w3.org/2000/svg" p-id="1102" xmlns:xlink="http://www.w3.org/1999/xlink" width="200" height="200"><defs><style type="text/css"></style></defs><path d="M973.312 788.48L609.28 131.584c-23.552-43.008-58.88-67.072-96.768-67.072-37.888 0-72.704 24.576-96.768 67.584L52.736 788.48c-23.552 42.496-26.112 86.016-6.656 119.296s58.368 52.224 106.496 52.224h720.896c48.128 0 87.04-18.944 106.496-52.224 19.456-33.28 16.896-76.288-6.656-119.296zM513.024 269.824c18.944 0 34.304 15.36 34.304 34.304V614.4a34.304 34.304 0 0 1-68.608 0V304.128c0-18.432 15.36-34.304 34.304-34.304z m0 547.84c-29.696 0-53.248-24.064-53.248-53.76s24.064-53.76 53.248-53.76c29.696 0 53.248 24.064 53.248 53.76s-24.064 53.76-53.248 53.76z" p-id="1103"></path></svg>